<svg height="1534" width="720" xmlns="http://www.w3.org/2000/svg">
<rect height="1534" fill="#555" width="720"></rect>
<text fill="#7f7" font-family="Courier New" font-size="12" xml:space="preserve">
<tspan x="10" y="26"></tspan>
<tspan x="10" y="42">&gt; npmdoc-react@0.0.3 test /home/travis/build/npmdoc/node-npmdoc-react</tspan>
<tspan x="10" y="58">&gt; (set -e; export PORT=$(utility2 shServerPortRandom); utility2 test test.js)</tspan>
<tspan x="10" y="74"></tspan>
<tspan x="10" y="90"></tspan>
<tspan x="10" y="106">[MODE_BUILD=npmTest] - 2017-04-11T05:02:28Z - npm-testing /home/travis/build/npmdoc/node-npmdoc-\</tspan>
<tspan x="10" y="122">react</tspan>
<tspan x="10" y="138"></tspan>
<tspan x="10" y="154">merging file:///home/travis/build/npmdoc/node-npmdoc-react/tmp/build/test-report.json to test-re\</tspan>
<tspan x="10" y="170">port</tspan>
<tspan x="10" y="186">&gt; server listening on http-port 40775</tspan>
<tspan x="10" y="202">Warning: Accessing PropTypes via the main React package is deprecated. Use the prop-types packag\</tspan>
<tspan x="10" y="218">e from npm instead.</tspan>
<tspan x="10" y="234">created apidoc file:///home/travis/build/npmdoc/node-npmdoc-react/tmp/build/apidoc.html</tspan>
<tspan x="10" y="250"></tspan>
<tspan x="10" y="266"></tspan>
<tspan x="10" y="282">browserTest - created electron entry-page /home/travis/build/npmdoc/node-npmdoc-react/tmp/electr\</tspan>
<tspan x="10" y="298">on.15b5b644ae60.1b2850411008.html</tspan>
<tspan x="10" y="314"></tspan>
<tspan x="10" y="330">[node test-case 1 of 6 passed] - testCase_buildLib_default</tspan>
<tspan x="10" y="346">[node test-case 2 of 6 passed] - testCase_buildReadme_default</tspan>
<tspan x="10" y="362">[node test-case 3 of 6 passed] - testCase_buildTest_default</tspan>
<tspan x="10" y="378"></tspan>
<tspan x="10" y="394">browserTest - created electron entry-page /home/travis/build/npmdoc/node-npmdoc-react/tmp/electr\</tspan>
<tspan x="10" y="410">on.15b5b644b5b0.736063d625d7f.html</tspan>
<tspan x="10" y="426"></tspan>
<tspan x="10" y="442">Xlib:  extension "RANDR" missing on display ":99.0".</tspan>
<tspan x="10" y="458">Xlib:  extension "RANDR" missing on display ":99.0".</tspan>
<tspan x="10" y="474">merging file:///home/travis/build/npmdoc/node-npmdoc-react/tmp/build/test-report.json to test-re\</tspan>
<tspan x="10" y="490">port</tspan>
<tspan x="10" y="506">Xlib:  extension "RANDR" missing on display ":99.0".</tspan>
<tspan x="10" y="522">[4771:0411/050232:WARNING:audio_manager.cc(314)] Multiple instances of AudioManager detected</tspan>
<tspan x="10" y="538">[4771:0411/050232:WARNING:audio_manager.cc(275)] Multiple instances of AudioManager detected</tspan>
<tspan x="10" y="554">[4801:0411/050232:ERROR:sandbox_linux.cc(343)] InitializeSandbox() called with multiple threads \</tspan>
<tspan x="10" y="570">in process gpu-process. </tspan>
<tspan x="10" y="586">[4771:0411/050232:ERROR:browser_gpu_channel_host_factory.cc(131)] Failed to create channel.</tspan>
<tspan x="10" y="602">merging file:///home/travis/build/npmdoc/node-npmdoc-react/tmp/build/test-report.json to test-re\</tspan>
<tspan x="10" y="618">port</tspan>
<tspan x="10" y="634">Xlib:  extension "RANDR" missing on display ":99.0".</tspan>
<tspan x="10" y="650">[4783:0411/050232:WARNING:audio_manager.cc(314)] Multiple instances of AudioManager detected</tspan>
<tspan x="10" y="666">[4783:0411/050232:WARNING:audio_manager.cc(275)] Multiple instances of AudioManager detected</tspan>
<tspan x="10" y="682"></tspan>
<tspan x="10" y="698">browserTest - opened url /home/travis/build/npmdoc/node-npmdoc-react/tmp/build/apidoc.html</tspan>
<tspan x="10" y="714"></tspan>
<tspan x="10" y="730">[4834:0411/050232:ERROR:sandbox_linux.cc(343)] InitializeSandbox() called with multiple threads \</tspan>
<tspan x="10" y="746">in process gpu-process. </tspan>
<tspan x="10" y="762">[4783:0411/050232:ERROR:browser_gpu_channel_host_factory.cc(131)] Failed to create channel.</tspan>
<tspan x="10" y="778">&gt; </tspan>
<tspan x="10" y="794">browserTest - opened url http://127.0.0.1:40775?modeTest=1</tspan>
<tspan x="10" y="810"></tspan>
<tspan x="10" y="826">server listening on http-port 36829</tspan>
<tspan x="10" y="842">[node test-case 4 of 6 passed] - testCase_buildApp_default</tspan>
<tspan x="10" y="858"></tspan>
<tspan x="10" y="874">browserTest - created screenCapture file:///home/travis/build/npmdoc/node-npmdoc-react/tmp/build\</tspan>
<tspan x="10" y="890">/screenCapture.npmTest.browser.%2Fhome%2Ftravis%2Fbuild%2Fnpmdoc%2Fnode-npmdoc-react%2Ftmp%2Fbui\</tspan>
<tspan x="10" y="906">ld%2Fapidoc.html.png</tspan>
<tspan x="10" y="922"></tspan>
<tspan x="10" y="938">browserTest - created screenCapture file:///home/travis/build/npmdoc/node-npmdoc-react/tmp/build\</tspan>
<tspan x="10" y="954">/screenCapture.npmTest.browser.%2Fhome%2Ftravis%2Fbuild%2Fnpmdoc%2Fnode-npmdoc-react%2Ftmp%2Fbui\</tspan>
<tspan x="10" y="970">ld%2Fapidoc.html.html</tspan>
<tspan x="10" y="986"></tspan>
<tspan x="10" y="1002">browserTest - exit-code 0 - /home/travis/build/npmdoc/node-npmdoc-react/tmp/build/apidoc.html</tspan>
<tspan x="10" y="1018"></tspan>
<tspan x="10" y="1034">[node test-case 5 of 6 passed] - testCase_buildApidoc_default</tspan>
<tspan x="10" y="1050"></tspan>
<tspan x="10" y="1066">browserTest - created screenCapture file:///home/travis/build/npmdoc/node-npmdoc-react/tmp/build\</tspan>
<tspan x="10" y="1082">/screenCapture.npmTest.browser.%2F.png</tspan>
<tspan x="10" y="1098"></tspan>
<tspan x="10" y="1114">browserTest - created screenCapture file:///home/travis/build/npmdoc/node-npmdoc-react/tmp/build\</tspan>
<tspan x="10" y="1130">/screenCapture.npmTest.browser.%2F.html</tspan>
<tspan x="10" y="1146"></tspan>
<tspan x="10" y="1162">browserTest - exit-code 0 - http://127.0.0.1:40775?modeTest=1</tspan>
<tspan x="10" y="1178"></tspan>
<tspan x="10" y="1194"></tspan>
<tspan x="10" y="1210">browserTest - merging test-report from /home/travis/build/npmdoc/node-npmdoc-react/tmp/test-repo\</tspan>
<tspan x="10" y="1226">rt.npmTest.browser.%2F.json</tspan>
<tspan x="10" y="1242"></tspan>
<tspan x="10" y="1258">[node test-case 6 of 6 passed] - testCase_webpage_default</tspan>
<tspan x="10" y="1274">merging file:///home/travis/build/npmdoc/node-npmdoc-react/tmp/build/test-report.json to test-re\</tspan>
<tspan x="10" y="1290">port</tspan>
<tspan x="10" y="1306"></tspan>
<tspan x="10" y="1322">-------------------------------------------------------</tspan>
<tspan x="10" y="1338">| test-report - buildCustomOrg - node - linux v6.10.2 - 2017-04-11T05:02:07.428Z</tspan>
<tspan x="10" y="1354">|   39242 ms            0 failed        6 passed      |</tspan>
<tspan x="10" y="1370">-------------------------------------------------------</tspan>
<tspan x="10" y="1386"></tspan>
<tspan x="10" y="1402">created test-report file:///home/travis/build/npmdoc/node-npmdoc-react/tmp/build/test-report.htm\</tspan>
<tspan x="10" y="1418">l</tspan>
<tspan x="10" y="1434"></tspan>
<tspan x="10" y="1450"></tspan>
<tspan x="10" y="1466">npmTest - 0 failed tests</tspan>
<tspan x="10" y="1482"></tspan>
<tspan x="10" y="1498"></tspan>
<tspan x="10" y="1514">[MODE_BUILD=npmTest] - 2017-04-11T05:02:50Z - EXIT_CODE - 0</tspan>
</text>
</svg>
